<?xml version="1.0" encoding="UTF-8" standalone="no"?>
<!-- Created with Inkscape (http://www.inkscape.org/) -->

<svg
   xmlns:dc="http://purl.org/dc/elements/1.1/"
   xmlns:cc="http://creativecommons.org/ns#"
   xmlns:rdf="http://www.w3.org/1999/02/22-rdf-syntax-ns#"
   xmlns:svg="http://www.w3.org/2000/svg"
   xmlns="http://www.w3.org/2000/svg"
   xmlns:sodipodi="http://sodipodi.sourceforge.net/DTD/sodipodi-0.dtd"
   xmlns:inkscape="http://www.inkscape.org/namespaces/inkscape"
   width="1500"
   height="1000"
   viewBox="0 0 1500 999.99999"
   id="svg2"
   version="1.1"
   inkscape:version="0.91 r13725"
   sodipodi:docname="EstuaryLogo.svg"
   inkscape:export-filename="/home/zack/Downloads/EstuaryLogo.svg.png"
   inkscape:export-xdpi="80.599998"
   inkscape:export-ydpi="80.599998">
  <defs
     id="defs4" />
  <sodipodi:namedview
     id="base"
     pagecolor="#ffffff"
     bordercolor="#666666"
     borderopacity="1.0"
     inkscape:pageopacity="0.0"
     inkscape:pageshadow="2"
     inkscape:zoom="0.7"
     inkscape:cx="807.5436"
     inkscape:cy="554.35665"
     inkscape:document-units="px"
     inkscape:current-layer="layer1"
     showgrid="false"
     inkscape:showpageshadow="false"
     inkscape:window-width="1916"
     inkscape:window-height="1057"
     inkscape:window-x="0"
     inkscape:window-y="435"
     inkscape:window-maximized="0"
     units="px" />
  <metadata
     id="metadata7">
    <rdf:RDF>
      <cc:Work
         rdf:about="">
        <dc:format>image/svg+xml</dc:format>
        <dc:type
           rdf:resource="http://purl.org/dc/dcmitype/StillImage" />
        <dc:title></dc:title>
      </cc:Work>
    </rdf:RDF>
  </metadata>
  <g
     inkscape:label="Layer 1"
     inkscape:groupmode="layer"
     id="layer1"
     transform="translate(0,-52.362271)">
    <g
       style="font-style:normal;font-variant:normal;font-weight:normal;font-stretch:normal;font-size:medium;line-height:100%;font-family:'Arial Black';-inkscape-font-specification:'Arial Black, Normal';text-align:start;letter-spacing:0px;word-spacing:0px;writing-mode:lr-tb;text-anchor:start;fill:#fff400;fill-opacity:1;stroke:#473fff;stroke-width:34.79964066;stroke-linecap:butt;stroke-linejoin:miter;stroke-miterlimit:4;stroke-dasharray:none;stroke-opacity:1"
       transform="matrix(0.23064865,0,0,0.30798345,133.14261,636.74348)"
       id="g4230">
      <path
         style="stroke-width:34.79964066;stroke-miterlimit:4;stroke-dasharray:none"
         d="m 179.98661,-1333.7052 c 93.49394,-80.5973 373.26689,-81.2024 620.42847,-95.8115 l 44.92104,125.555 -291.16394,56.739 19.74167,83.8044 282.79951,-43.6722 42.9118,119.9392 -254.11789,59.429 6.37623,89.38678 320.10557,-37.658 47.64783,133.17649 -486.37633,59.97048 -175.5613,-447.75735 -126.17255,19.4845 z"
         id="path4149"
         inkscape:connector-curvature="0"
         sodipodi:nodetypes="ccccccccccccccc" />
      <path
         style="stroke-width:34.79964066;stroke-miterlimit:4;stroke-dasharray:none"
         d="m 895.88749,-1054.1161 79.01554,-49.78 c 53.64717,-23.0935 69.71017,9.0516 133.02327,82.1983 25.0673,22.04899 55.2159,31.15129 90.4456,27.30699 26.287,-2.8683 44.9349,-11.16879 55.9439,-24.90149 11.2115,-14.0331 14.7619,-29.1797 10.6512,-45.4397 -3.9051,-15.4469 -14.1741,-28.5286 -30.807,-39.2449 -16.6328,-10.7165 -50.9803,-18.8036 -103.0426,-24.2617 -85.3477,-9.3448 -149.03235,-27.1798 -191.0538,-53.5051 -42.29246,-26.2958 -69.33056,-62.7496 -81.11432,-109.3613 -7.74166,-30.6229 -6.23054,-60.4452 4.53335,-89.4672 10.96636,-29.3226 32.24741,-53.6443 63.84315,-72.965 31.79826,-19.6212 78.72672,-32.8177 140.78542,-39.5894 76.1506,-8.3096 137.7411,-0.4104 184.7715,23.6977 47.2329,23.8072 82.4535,66.1908 105.6617,127.1505 l -150.9094,8.65 c -52.8068,9.733 -64.1621,-34.8893 -64.1621,-34.8893 -17.7169,-10.5982 -39.5833,-14.4778 -65.5991,-11.639 -21.409,2.3361 -36.3687,8.7026 -44.8794,19.0993 -8.579,10.1258 -11.2243,21.6927 -7.9358,34.7006 2.3978,9.4849 9.0273,17.5335 19.8886,24.1456 10.6587,6.9128 33.1044,11.9823 67.337,15.2087 84.8712,8.5613 146.9117,19.8925 186.1211,33.9933 39.412,13.8002 70.2997,32.9863 92.6632,57.558 22.6344,24.5423 38.0622,53.0732 46.2834,85.593 9.6599,38.2108 7.9974,74.5939 -4.9879,109.1493 -12.9851,34.55539 -36.3239,62.30401 -70.0159,83.24586 -33.7607,20.67085 -79.5024,34.15559 -137.2252,40.4542 -101.3535,11.05955 -176.4748,-0.79348 -225.36413,-35.55907 -48.88927,-34.76558 -83.51303,-81.9483 -103.87128,-141.54819 z"
         id="path4151"
         inkscape:connector-curvature="0"
         sodipodi:nodetypes="cccscssccsccsccccscsccccsscssc" />
      <path
         style="stroke-width:34.79964066;stroke-miterlimit:4;stroke-dasharray:none"
         d="m 1215.4978,-1575.5855 c 174.0305,-21.3466 354.1625,-38.7703 558.8948,-40.3775 l 19.8597,148.5965 -219.955,9.2013 110.712,444.4734 -242.2882,12.8144 5.6285,-447.6975 -219.3383,13.8153 z"
         id="path4153"
         inkscape:connector-curvature="0"
         sodipodi:nodetypes="ccccccccc" />
      <path
         style="stroke-width:34.79964066;stroke-miterlimit:4;stroke-dasharray:none"
         d="m 2183.746,-986.85595 -156.5853,0 59.8206,-110.17665 c -23.3505,29.1194 -106.7962,89.1613 -130.6961,101.52325 -23.6251,12.362 -52.7445,18.543 -87.3581,18.543 -46.1515,0 -82.4133,-13.73555 -108.7856,-41.20665 -26.0976,-27.7458 -39.1464,-70.326 -39.1464,-127.7407 l 0,-278.557 168.5353,0 c -20.3401,70.8755 -46.2606,143.9507 -51.0968,208.7147 -2.0488,27.438 -0.1329,69.5398 9.0152,81.4391 13.6173,17.7125 27.6471,28.8776 66.5339,31.2259 19.9698,1.206 55.0932,-10.1482 67.7299,-25.532 12.9114,-15.3838 31.0909,-49.6056 34.3223,-85.2817 9.4506,-104.3377 -2.4925,-162.4843 -2.4925,-232.6729 l 161.4798,-16.3755 z"
         id="path4155"
         inkscape:connector-curvature="0"
         sodipodi:nodetypes="ccccscsccssscsccc" />
      <path
         style="stroke-width:34.79964066;stroke-miterlimit:4;stroke-dasharray:none"
         d="m 2682.6882,-967.22239 -15.8623,-475.63451 -135.8426,1.6375 46.1117,-113.7002 c 360.0229,68.8656 398.0053,10.1175 533.1146,8.2842 38.5936,1.7019 60.6878,26.6578 79.3681,53.5795 18.6803,26.6469 22.4123,60.8377 22.4123,99.2973 0,33.5147 -7.1425,62.4967 -21.4274,86.946 -14.285,24.1746 -33.9269,43.8165 -58.9256,58.9256 -15.9332,9.6149 -37.7727,17.5815 -65.5186,23.8998 22.2516,7.4172 38.4596,14.8344 48.6239,22.2516 6.8678,4.9448 16.7574,15.5212 29.6688,31.7291 48.4383,64.2823 73.8291,137.1608 106.6448,206.07625 l -201.0081,6.5502 -99.7201,-184.60585 c -12.6367,-23.8999 -23.8998,-39.4211 -33.7894,-46.5636 -13.4609,-9.3401 -28.7073,-14.0102 -45.7394,-14.0102 l -16.4827,0 22.4327,243.5421 z m 171.628,-349.47981 78.7047,0 c 8.5161,0 24.9987,-2.7471 49.448,-8.2413 12.362,-2.4724 22.389,-8.7908 30.0809,-18.9551 7.9666,-10.1643 11.9499,-21.8395 11.9499,-35.0256 0,-19.5045 -6.181,-34.4763 -18.543,-44.9153 -12.362,-10.439 -35.5751,-15.6585 -69.6392,-15.6585 l -82.0013,0 z"
         id="path4159"
         inkscape:connector-curvature="0"
         sodipodi:nodetypes="ccccccscccccccccsccccsccssscc" />
      <path
         style="stroke-width:34.79964066;stroke-miterlimit:4;stroke-dasharray:none"
         d="m 3226.1192,-1426.4381 180.0503,-31.0005 48.3333,240.1825 110.6496,-224.381 174.8415,-3.42 -251.4518,418.8824 c -28.7037,51.51201 -54.8786,85.79501 -78.5248,102.849 -33.415,24.07385 -79.7427,33.92661 -138.983,29.55827 -24.0237,-1.77149 -119.5399,-22.43097 -168.652,-32.68692 l 65.7125,-102.61725 c 22.7178,9.4154 48.8186,15.2102 78.3023,17.3843 19.6558,1.4494 36.2591,-1.8875 49.81,-10.0106 13.824,-8.103 26.9495,-23.4449 39.3768,-46.0256 z"
         id="path4161"
         inkscape:connector-curvature="0"
         sodipodi:nodetypes="cccccccsccsccc" />
      <path
         d="m 3647.2376,-1300.094 177.5957,10.8585 31.1561,171.4968 138.912,-169.4862 149.8598,6.9979 0.7031,404.03103 -151.3546,-12.06571 43.6336,-236.25092 -161.0355,226.89186 -111.0925,-15.45433 -36.6993,-212.96293 -106.2384,208.16645 -151.7636,-12.09831 z"
         id="path4163"
         inkscape:connector-curvature="0"
         sodipodi:nodetypes="cccccccccccccc"
         style="stroke-width:34.79964066;stroke-miterlimit:4;stroke-dasharray:none" />
      <path
         d="m 4155.2181,-1134.5791 c 6.036,-55.1633 27.6494,-99.7791 64.8402,-133.8474 37.2158,-34.2951 84.1413,-50.1054 140.7765,-47.4305 64.7551,3.0583 111.3789,26.3672 139.8716,69.9268 22.891,35.0803 31.6291,77.3646 26.2141,126.8528 -6.0858,55.6175 -27.6227,100.4651 -64.6105,134.54291 -36.7599,33.86041 -84.2695,49.41484 -142.5289,46.66329 -51.9664,-2.45433 -92.3714,-19.19454 -121.2154,-50.22062 -35.3816,-38.40858 -49.8308,-87.23768 -43.3476,-146.48728 z m 169.063,-26.9825 c -3.9847,19.6234 -6.7533,41.7665 5.7355,59.1643 6.6888,9.318 19.2953,20.2283 33.7281,19.5777 19.8877,-0.8968 34.5032,-17.6571 42.8842,-31.0061 10.1786,-16.212 6.0183,-35.4474 4.9349,-53.158 -0.7721,-12.6228 1.1172,-26.8017 -8.1204,-37.3675 -5.7642,-6.5929 -15.926,-13.0844 -26.6788,-12.9932 -12.6895,0.1078 -23.7429,8.5073 -31.6734,15.8694 -12.0678,11.2029 -17.9577,25.8667 -20.8101,39.9134 z"
         id="path4165"
         inkscape:connector-curvature="0"
         sodipodi:nodetypes="scscscscsaaaaaaaaa"
         style="stroke-width:34.79964066;stroke-miterlimit:4;stroke-dasharray:none" />
      <path
         d="m 4494.4481,-1397.8595 339.2317,48.4007 7.6874,344.7096 138.8291,-329.887 112.4924,7.0228 -194.4402,589.43597 -158.9868,-19.92152 -37.1447,-461.40545 -114.092,442.45505 -172.4322,-21.60627 150.8781,-519.72688 -123.5808,-13.1275 z"
         style="fill:#fff400;fill-opacity:1;stroke:#473fff;stroke-width:34.79964066;stroke-miterlimit:4;stroke-dasharray:none;stroke-opacity:1"
         id="path4167"
         inkscape:connector-curvature="0"
         sodipodi:nodetypes="ccccccccccccc" />
      <g
         transform="matrix(0.90676634,-0.04681522,0.084677,0.70791948,212.96036,-356.47402)"
         style="color:#000000;font-size:767.11853027px;clip-rule:nonzero;display:inline;overflow:visible;visibility:visible;opacity:1;isolation:auto;mix-blend-mode:normal;color-interpolation:sRGB;color-interpolation-filters:linearRGB;solid-color:#000000;solid-opacity:1;fill:#fff400;fill-opacity:1;fill-rule:nonzero;stroke:#473fff;stroke-width:43.30103302;stroke-linecap:butt;stroke-linejoin:miter;stroke-miterlimit:4;stroke-dasharray:none;stroke-dashoffset:0;stroke-opacity:1;color-rendering:auto;image-rendering:auto;shape-rendering:auto;text-rendering:auto;enable-background:accumulate"
         id="text4173">
        <path
           style="stroke-width:43.30103302;stroke-miterlimit:4;stroke-dasharray:none"
           d="m 2530.7079,-1543.7999 131.0994,0 -120.986,111.9963 -73.0411,0 62.9277,-111.9963 z"
           id="path4180"
           inkscape:connector-curvature="0" />
      </g>
      <g
         transform="matrix(1.1109959,-0.03753213,0.07217871,0.92220699,-54.480032,35.434563)"
         style="color:#000000;clip-rule:nonzero;display:inline;overflow:visible;visibility:visible;opacity:1;isolation:auto;mix-blend-mode:normal;color-interpolation:sRGB;color-interpolation-filters:linearRGB;solid-color:#000000;solid-opacity:1;fill:#fff400;fill-opacity:1;fill-rule:nonzero;stroke:#473fff;stroke-width:34.33451843;stroke-linecap:butt;stroke-linejoin:miter;stroke-miterlimit:4;stroke-dasharray:none;stroke-dashoffset:0;stroke-opacity:1;color-rendering:auto;image-rendering:auto;shape-rendering:auto;text-rendering:auto;enable-background:accumulate"
         id="text4192">
        <path
           style="stroke-width:34.33451843;stroke-miterlimit:4;stroke-dasharray:none"
           d="m 2376.4953,-1209.2814 -125.4835,1.4285 -39.2567,106.863 -137.9298,0 c 32.0425,-147.6833 91.7956,-280.793 158.4773,-405.5182 l 152.1325,-1.4286 c 68.0302,133.817 102.5246,272.4248 145.6201,409.804 l -141.0339,0 z m -20.5748,-92.0537 c -10.2943,-28.6736 -19.6864,-60.9065 -41.0405,-104.302 -19.3841,38.9891 -30.2119,78.9483 -36.3428,104.302 z"
           id="path4209"
           inkscape:connector-curvature="0"
           sodipodi:nodetypes="ccccccccccccc" />
      </g>
    </g>
    <text
       sodipodi:linespacing="100%"
       id="text4245"
       y="578.07654"
       x="319.28571"
       style="color:#000000;font-style:normal;font-variant:normal;font-weight:normal;font-stretch:normal;font-size:medium;line-height:100%;font-family:'Arial Black';-inkscape-font-specification:'Arial Black, Normal';text-align:start;letter-spacing:0px;word-spacing:0px;writing-mode:lr-tb;text-anchor:start;clip-rule:nonzero;display:inline;overflow:visible;visibility:visible;opacity:1;isolation:auto;mix-blend-mode:normal;color-interpolation:sRGB;color-interpolation-filters:linearRGB;solid-color:#000000;solid-opacity:1;fill:#fff400;fill-opacity:1;fill-rule:nonzero;stroke:#473fff;stroke-width:34.79999924;stroke-linecap:butt;stroke-linejoin:miter;stroke-miterlimit:4;stroke-dasharray:none;stroke-dashoffset:0;stroke-opacity:1;color-rendering:auto;image-rendering:auto;shape-rendering:auto;text-rendering:auto;enable-background:accumulate"
       xml:space="preserve"><tspan
         y="578.07654"
         x="319.28571"
         id="tspan4247"
         sodipodi:role="line" /></text>
    <g
       id="g4351"
       transform="matrix(1.1874741,0,0,0.98749152,-98.563707,-8.2983501)">
      <path
         inkscape:connector-curvature="0"
         id="path4260"
         style="color:#000000;font-style:normal;font-variant:normal;font-weight:normal;font-stretch:normal;font-size:90px;line-height:100%;font-family:'Comic Sans MS';-inkscape-font-specification:'Comic Sans MS, Normal';text-align:start;letter-spacing:0px;word-spacing:0px;writing-mode:lr-tb;text-anchor:start;clip-rule:nonzero;visibility:visible;isolation:auto;mix-blend-mode:normal;color-interpolation:sRGB;color-interpolation-filters:linearRGB;solid-color:#000000;solid-opacity:1;fill:#ffffff;fill-opacity:1;fill-rule:nonzero;stroke:#1e2fff;stroke-width:5;stroke-linecap:butt;stroke-linejoin:miter;stroke-miterlimit:4;stroke-dasharray:none;stroke-dashoffset:0;stroke-opacity:1;color-rendering:auto;image-rendering:auto;shape-rendering:auto;text-rendering:auto"
         d="m 396.56881,450.56527 c -0.77997,9.14252 -3.75897,16.72362 -8.93698,22.74331 -5.15226,5.98725 -11.65772,9.43143 -19.51638,10.33257 -7.16012,0.82102 -12.75882,-0.55699 -16.79611,-4.13402 -4.04063,-3.60614 -6.51985,-9.4113 -7.43767,-17.41549 -0.86441,-7.53849 2.15053,-15.74299 4.78701,-24.12524 2.66224,-8.41471 10.24579,-17.26875 15.27013,-22.82847 3.34845,-3.71621 5.73085,-3.67836 9.89302,-4.15562 2.64867,-0.30371 7.91972,1.56613 7.91972,1.56613 0,0 6.81424,3.32672 7.10461,5.85896 0.13683,1.19335 -0.17794,2.30577 -0.94431,3.3373 -0.76639,1.03153 -1.76082,1.61737 -2.98328,1.75754 -0.64033,0.0734 -1.58434,-0.18693 -2.83202,-0.78109 -4.76364,-2.19622 -4.90157,-1.57449 -7.95773,-1.22405 -2.18296,0.25031 -4.09918,2.15932 -6.22557,4.70328 -1.06318,1.27198 -2.29037,2.60771 -4.18779,5.86261 -5.70224,9.67746 -12.21945,18.59739 -11.02462,29.01738 0.62745,5.47196 1.91041,9.20263 3.84887,11.19203 2.10737,2.17643 5.62052,2.98263 10.53946,2.41859 5.21,-0.59741 9.54744,-2.76088 13.01231,-6.49043 3.64526,-3.95664 5.89618,-9.27209 6.75275,-15.94633 -8.01567,1.33197 -14.74983,3.68182 -20.20246,7.04951 -0.63274,0.39693 -1.26927,0.63211 -1.9096,0.70554 -1.28067,0.14685 -2.39978,-0.22613 -3.35734,-1.11897 -0.88932,-0.81218 -1.4024,-1.81493 -1.53924,-3.00829 -0.18356,-1.60083 0.4409,-2.96996 1.87338,-4.10734 5.84637,-4.5629 16.46814,-7.72714 31.86531,-9.49268 1.25156,-0.14351 2.34777,0.15837 3.28864,0.90567 0.94086,0.74729 1.48472,1.76128 1.63157,3.04195 0.21693,1.8919 -0.4283,3.33711 -1.93568,4.33565 z"
         sodipodi:nodetypes="ccscsccscssscsscscscccscscsssc" />
      <path
         inkscape:connector-curvature="0"
         id="path4262"
         style="color:#000000;font-style:normal;font-variant:normal;font-weight:normal;font-stretch:normal;font-size:90px;line-height:100%;font-family:'Comic Sans MS';-inkscape-font-specification:'Comic Sans MS, Normal';text-align:start;letter-spacing:0px;word-spacing:0px;writing-mode:lr-tb;text-anchor:start;clip-rule:nonzero;visibility:visible;isolation:auto;mix-blend-mode:normal;color-interpolation:sRGB;color-interpolation-filters:linearRGB;solid-color:#000000;solid-opacity:1;fill:#ffffff;fill-opacity:1;fill-rule:nonzero;stroke:#1e2fff;stroke-width:5;stroke-linecap:butt;stroke-linejoin:miter;stroke-miterlimit:4;stroke-dasharray:none;stroke-dashoffset:0;stroke-opacity:1;color-rendering:auto;image-rendering:auto;shape-rendering:auto;text-rendering:auto"
         d="m 425.69641,471.12286 q -7.29122,1.15933 -13.39833,-3.38729 -6.81132,-5.05762 -8.72299,-15.12155 -1.81997,-9.76701 2.20111,-18.05993 4.67518,-9.77631 15.52521,-11.50149 8.68002,-1.38016 14.41308,5.85129 4.58011,5.85735 5.88526,14.90526 1.40176,9.65554 -2.41903,17.24915 -4.32689,8.60851 -13.48431,10.06456 z m -3.55835,-39.17035 q -6.38672,0.97104 -8.97253,7.6563 -2.04122,5.35275 -1.04062,11.64576 1.00061,6.29303 4.98818,9.26328 3.32676,2.45236 7.18937,1.83819 4.51361,-0.71768 7.24416,-4.53364 3.10935,-4.23216 2.33955,-10.47289 -2.06299,-16.89246 -11.74811,-15.397 z" />
      <path
         id="path4266"
         style="color:#000000;font-style:normal;font-variant:normal;font-weight:normal;font-stretch:normal;font-size:90px;line-height:100%;font-family:'Comic Sans MS';-inkscape-font-specification:'Comic Sans MS, Normal';text-align:start;letter-spacing:0px;word-spacing:0px;writing-mode:lr-tb;text-anchor:start;clip-rule:nonzero;visibility:visible;isolation:auto;mix-blend-mode:normal;color-interpolation:sRGB;color-interpolation-filters:linearRGB;solid-color:#000000;solid-opacity:1;fill:#ffffff;fill-opacity:1;fill-rule:nonzero;stroke:#1e2fff;stroke-width:5;stroke-linecap:butt;stroke-linejoin:miter;stroke-miterlimit:4;stroke-dasharray:none;stroke-dashoffset:0;stroke-opacity:1;color-rendering:auto;image-rendering:auto;shape-rendering:auto;text-rendering:auto"
         d="m 460.68503,421.58419 4.4148,25.60733 0.31063,1.90897 0.35311,2.21367 c 1.00239,6.33831 -0.0778,9.72803 -3.24052,10.16917 -1.16064,0.16183 -2.22881,-0.0737 -3.20453,-0.70667 -0.94667,-0.63706 -1.49893,-1.52137 -1.65677,-2.65301 -0.1538,-1.10259 -0.34097,-2.76257 -0.56151,-4.97994 -0.22056,-2.21734 -0.40771,-3.87733 -0.5615,-4.97995 l -4.41581,-25.29657 c -2.13031,0.2084 -5.38549,0.41103 -9.76553,0.60779 -2.63098,0.0123 -4.12254,-1.24418 -4.47464,-3.76856 -0.17808,-1.27672 0.066,-2.39043 0.73198,-3.34117 0.66607,-0.95074 1.60844,-1.51112 2.82709,-1.68109 l 9.24325,-0.53499 c -0.20641,-1.47983 -0.5542,-3.44279 -1.04324,-5.88892 -0.46413,-2.47918 -0.77308,-4.27008 -0.92688,-5.37269 -0.16997,-1.21867 0.11112,-2.27841 0.84332,-3.1792 0.72813,-0.92982 1.70154,-1.47971 2.9202,-1.64969 2.61145,-0.36425 4.43226,1.55594 5.46244,5.7606 0.23679,1.06142 0.46041,2.34655 0.67087,3.8554 l 0.26504,2.53653 0.33288,2.70457 c 4.33059,-1.44996 6.29112,-0.94951 10.79091,-1.55572 l 5.52934,-0.65438 c -0.20641,-1.47982 -0.55419,-3.44278 -1.04326,-5.88891 -0.21736,-2.64883 -0.33521,-4.20282 -0.15055,-5.30068 0.22179,-1.31838 0.11112,-2.2784 0.84331,-3.1792 0.91837,-0.93899 2.78139,-1.57828 3.84872,-1.77947 1.5502,-0.0323 3.42309,0.41593 3.75756,5.81808 0.2368,1.06145 0.46042,2.34658 0.67087,3.85542 l 0.26505,2.53653 0.33287,2.70455 c 3.53324,-0.9661 5.56099,-1.4856 6.08328,-1.55844 3.01765,-0.4209 4.56529,-0.77574 5.83023,-1.00695 1.5868,-0.48912 2.8094,1.55215 4.12357,3.53195 0.63684,0.95942 -0.0697,2.11691 -1.07072,3.51588 -0.67011,0.92171 -1.72715,1.45142 -3.32969,2.28052 -1.14913,0.58434 -1.1217,0.49708 -2.37378,0.94352 -2.74431,0.95855 -5.63519,0.38815 -7.78756,0.9619 l 4.41479,25.60733 0.31063,1.90896 0.35312,2.21368 c 1.0024,6.33831 0.5244,7.18983 -0.93344,9.1143 -0.70761,0.93411 -3.4947,0.67661 -4.47039,0.0435 -0.9467,-0.63704 -1.68745,-1.35362 -2.04144,-2.43996 -0.39009,-1.19717 -0.99753,-2.67102 -1.21806,-4.88838 -0.10517,-1.05754 -0.20274,-1.98828 -0.29277,-2.79225 -0.0986,-0.88174 -0.18829,-1.61097 -0.26872,-2.1877 l -4.41583,-25.29659 c -2.13029,0.20841 -1.77769,0.22652 -6.15775,0.42327 -4.3109,0.5963 -6.12147,0.62208 -10.12502,1.7372 z"
         inkscape:connector-curvature="0"
         sodipodi:nodetypes="ccccscsscccsscccscscccccccsccccccscscccccccscsssccccc" />
      <path
         inkscape:connector-curvature="0"
         id="path4268"
         style="color:#000000;font-style:normal;font-variant:normal;font-weight:normal;font-stretch:normal;font-size:90px;line-height:100%;font-family:'Comic Sans MS';-inkscape-font-specification:'Comic Sans MS, Normal';text-align:start;letter-spacing:0px;word-spacing:0px;writing-mode:lr-tb;text-anchor:start;clip-rule:nonzero;visibility:visible;isolation:auto;mix-blend-mode:normal;color-interpolation:sRGB;color-interpolation-filters:linearRGB;solid-color:#000000;solid-opacity:1;fill:#ffffff;fill-opacity:1;fill-rule:nonzero;stroke:#1e2fff;stroke-width:5;stroke-linecap:butt;stroke-linejoin:miter;stroke-miterlimit:4;stroke-dasharray:none;stroke-dashoffset:0;stroke-opacity:1;color-rendering:auto;image-rendering:auto;shape-rendering:auto;text-rendering:auto"
         d="m 546.05181,450.01967 q -0.83316,0.0548 -3.15259,-1.73039 -2.09155,-1.66807 -3.14856,-3.00783 -4.05966,2.55713 -7.18576,3.90781 -3.1232,1.39454 -5.27188,1.53588 -10.26103,0.67496 -15.33379,-4.80468 -4.78657,-5.14613 -5.525,-16.37186 -0.69804,-10.61185 6.08502,-18.63295 6.82691,-8.02401 16.95638,-8.69032 3.81501,-0.25095 8.68066,1.41079 6.12521,2.06335 6.35308,5.52754 0.0779,1.18396 -0.73855,2.16251 -0.3289,1.69518 -0.34106,5.52748 0.0317,3.82942 0.38014,9.79597 0.31383,5.44036 1.31081,8.54567 0.56542,1.90058 3.27025,7.53599 0.35888,0.76911 1.16145,2.25772 l 0.31214,0.72817 q 0.11538,1.75401 -1.03745,2.97489 -1.15281,1.22088 -2.77529,1.32761 z M 534.9262,420.14351 q -0.12403,-1.88557 -0.049,-4.09253 0.11599,-2.25368 0.43393,-4.78489 -1.67728,-0.72643 -2.8872,-1.04321 -1.16608,-0.31966 -1.86769,-0.27351 -6.79683,0.4471 -11.38562,6.34206 -4.54782,5.84823 -4.07188,13.08357 0.47305,7.19148 3.25292,10.61993 2.77986,3.42846 7.86652,3.09386 4.20966,-0.27691 7.04668,-2.00495 1.52381,-0.937 4.20968,-3.62398 -2.16759,-11.52807 -2.54834,-17.31635 z" />
      <path
         inkscape:connector-curvature="0"
         id="path4270"
         style="color:#000000;font-style:normal;font-variant:normal;font-weight:normal;font-stretch:normal;font-size:90px;line-height:100%;font-family:'Comic Sans MS';-inkscape-font-specification:'Comic Sans MS, Normal';text-align:start;letter-spacing:0px;word-spacing:0px;writing-mode:lr-tb;text-anchor:start;clip-rule:nonzero;visibility:visible;isolation:auto;mix-blend-mode:normal;color-interpolation:sRGB;color-interpolation-filters:linearRGB;solid-color:#000000;solid-opacity:1;fill:#ffffff;fill-opacity:1;fill-rule:nonzero;stroke:#1e2fff;stroke-width:5;stroke-linecap:butt;stroke-linejoin:miter;stroke-miterlimit:4;stroke-dasharray:none;stroke-dashoffset:0;stroke-opacity:1;color-rendering:auto;image-rendering:auto;shape-rendering:auto;text-rendering:auto"
         d="m 611.00107,444.66917 q -9.00519,0.2547 -15.17736,-5.02214 -6.48711,-5.53168 -6.75175,-14.8883 -0.25221,-8.91733 5.40967,-18.57345 6.29098,-10.72903 14.54939,-10.9626 4.30492,-0.12177 9.67733,1.74859 6.79425,2.40164 6.89985,6.13549 0.0473,1.66926 -1.0137,3.01815 -1.06216,1.30498 -2.6875,1.35095 -1.27389,0.036 -2.26143,-0.68342 -0.94484,-0.76461 -1.84453,-1.48653 -2.65012,-1.9913 -8.53644,-1.82482 -4.48064,0.12673 -8.64729,8.24583 -3.78993,7.44899 -3.63836,12.80817 0.16401,5.79846 4.21193,9.02515 3.77813,3.0145 9.5766,2.8505 2.63566,-0.0745 5.583,-1.56472 l 5.01859,-2.86762 q 1.29795,-0.74013 1.86901,-0.75628 1.62533,-0.046 2.84865,1.23831 1.22208,1.24036 1.26929,2.90963 0.0907,3.20672 -6.58968,6.38513 -5.8557,2.80341 -9.76527,2.91398 z" />
      <path
         inkscape:connector-curvature="0"
         id="path4272"
         style="color:#000000;font-style:normal;font-variant:normal;font-weight:normal;font-stretch:normal;font-size:90px;line-height:100%;font-family:'Comic Sans MS';-inkscape-font-specification:'Comic Sans MS, Normal';text-align:start;letter-spacing:0px;word-spacing:0px;writing-mode:lr-tb;text-anchor:start;clip-rule:nonzero;visibility:visible;isolation:auto;mix-blend-mode:normal;color-interpolation:sRGB;color-interpolation-filters:linearRGB;solid-color:#000000;solid-opacity:1;fill:#ffffff;fill-opacity:1;fill-rule:nonzero;stroke:#1e2fff;stroke-width:5;stroke-linecap:butt;stroke-linejoin:miter;stroke-miterlimit:4;stroke-dasharray:none;stroke-dashoffset:0;stroke-opacity:1;color-rendering:auto;image-rendering:auto;shape-rendering:auto;text-rendering:auto"
         d="m 649.36112,440.27721 q -7.38281,0 -12.70019,-5.44921 -5.93262,-6.06446 -6.24023,-16.30372 -0.26368,-9.93163 5.00975,-17.49023 6.15235,-8.92089 17.13868,-8.92089 8.78907,0 13.31543,8.04199 3.60352,6.5039 3.47167,15.64452 -0.13182,9.75586 -5.09764,16.65528 -5.625,7.82226 -14.89747,7.82226 z m 2.63672,-39.24316 q -6.45996,-0.0439 -10.06347,6.15235 -2.85645,4.96581 -2.85645,11.33788 0,6.37207 3.47168,9.93164 2.90039,2.94434 6.81152,2.94434 4.57032,0 7.86622,-3.33984 3.73534,-3.6914 3.95507,-9.97559 0.61523,-17.00684 -9.18457,-17.05078 z" />
      <path
         inkscape:connector-curvature="0"
         id="path4274"
         style="color:#000000;font-style:normal;font-variant:normal;font-weight:normal;font-stretch:normal;font-size:90px;line-height:100%;font-family:'Comic Sans MS';-inkscape-font-specification:'Comic Sans MS, Normal';text-align:start;letter-spacing:0px;word-spacing:0px;writing-mode:lr-tb;text-anchor:start;clip-rule:nonzero;visibility:visible;isolation:auto;mix-blend-mode:normal;color-interpolation:sRGB;color-interpolation-filters:linearRGB;solid-color:#000000;solid-opacity:1;fill:#ffffff;fill-opacity:1;fill-rule:nonzero;stroke:#1e2fff;stroke-width:5;stroke-linecap:butt;stroke-linejoin:miter;stroke-miterlimit:4;stroke-dasharray:none;stroke-dashoffset:0;stroke-opacity:1;color-rendering:auto;image-rendering:auto;shape-rendering:auto;text-rendering:auto"
         d="m 685.0136,405.86737 -0.39931,21.84712 q 0.0412,3.47144 -0.23042,10.19878 -0.38715,4.39946 -4.25406,4.44548 -4.30634,0.0513 -4.35968,-4.43089 -0.0632,-5.31701 0.29354,-15.95678 0.3563,-10.68368 0.29305,-16.0007 -0.0826,-6.94288 0.031,-15.86575 0.11309,-8.96682 0.0305,-15.9097 -0.0523,-4.39421 4.25405,-4.44544 4.35027,-0.0517 4.40255,4.34245 0.0826,6.94287 -0.0304,15.90969 -0.11357,8.92288 -0.031,15.86574 z" />
      <path
         inkscape:connector-curvature="0"
         id="path4276"
         style="color:#000000;font-style:normal;font-variant:normal;font-weight:normal;font-stretch:normal;font-size:90px;line-height:100%;font-family:'Comic Sans MS';-inkscape-font-specification:'Comic Sans MS, Normal';text-align:start;letter-spacing:0px;word-spacing:0px;writing-mode:lr-tb;text-anchor:start;clip-rule:nonzero;visibility:visible;isolation:auto;mix-blend-mode:normal;color-interpolation:sRGB;color-interpolation-filters:linearRGB;solid-color:#000000;solid-opacity:1;fill:#ffffff;fill-opacity:1;fill-rule:nonzero;stroke:#1e2fff;stroke-width:5;stroke-linecap:butt;stroke-linejoin:miter;stroke-miterlimit:4;stroke-dasharray:none;stroke-dashoffset:0;stroke-opacity:1;color-rendering:auto;image-rendering:auto;shape-rendering:auto;text-rendering:auto"
         d="m 702.30307,406.51809 -1.11364,21.82239 q -0.0723,3.47092 -0.5637,10.18579 -0.53082,4.38443 -4.39717,4.30394 -4.30571,-0.0897 -4.21241,-4.57111 0.11068,-5.31624 0.81534,-15.93863 0.70556,-10.66633 0.81624,-15.98258 0.14453,-6.94184 0.54988,-15.85624 0.40592,-8.95835 0.55081,-15.90019 0.0915,-4.39356 4.39718,-4.30391 4.34964,0.0906 4.25817,4.48412 -0.14452,6.94186 -0.5508,15.90019 -0.40554,8.91437 -0.5499,15.85623 z" />
      <path
         inkscape:connector-curvature="0"
         id="path4278"
         style="color:#000000;font-style:normal;font-variant:normal;font-weight:normal;font-stretch:normal;font-size:90px;line-height:100%;font-family:'Comic Sans MS';-inkscape-font-specification:'Comic Sans MS, Normal';text-align:start;letter-spacing:0px;word-spacing:0px;writing-mode:lr-tb;text-anchor:start;clip-rule:nonzero;visibility:visible;isolation:auto;mix-blend-mode:normal;color-interpolation:sRGB;color-interpolation-filters:linearRGB;solid-color:#000000;solid-opacity:1;fill:#ffffff;fill-opacity:1;fill-rule:nonzero;stroke:#1e2fff;stroke-width:5;stroke-linecap:butt;stroke-linejoin:miter;stroke-miterlimit:4;stroke-dasharray:none;stroke-dashoffset:0;stroke-opacity:1;color-rendering:auto;image-rendering:auto;shape-rendering:auto;text-rendering:auto"
         d="m 723.4097,439.85415 q -9.21752,-3.69795 -13.07852,-10.59746 -4.19486,-7.60166 -0.51328,-16.7784 4.25427,-10.60423 12.27305,-15.72079 8.72923,-5.58914 18.06911,-1.84211 6.77039,2.71618 10.13657,6.71824 4.13231,4.92498 1.79246,10.7573 -1.63626,4.07855 -7.58676,5.57399 -2.62832,0.65016 -10.47912,1.0991 l -18.54169,1.13167 q 0.92589,4.30151 3.62385,7.3726 2.73877,3.08744 7.26596,4.90369 2.81419,1.12901 7.03267,1.59031 5.35265,0.58486 7.60658,-1.02044 2.27029,-1.64609 3.86092,-1.00795 1.4275,0.57269 2.08692,2.11569 0.71654,1.51858 0.14386,2.94606 -1.81625,4.52719 -10.42585,4.86112 -7.35284,0.26994 -13.26673,-2.10262 z m 13.8051,-37.59737 q -4.97584,-1.99624 -9.8339,0.55301 -4.84171,2.50847 -9.58202,9.60321 l 14.91009,-0.93136 q 8.82208,-0.62751 13.02613,-2.01864 -2.19855,-4.67003 -8.5203,-7.20622 z" />
      <path
         inkscape:connector-curvature="0"
         id="path4280"
         style="color:#000000;font-style:normal;font-variant:normal;font-weight:normal;font-stretch:normal;font-size:90px;line-height:100%;font-family:'Comic Sans MS';-inkscape-font-specification:'Comic Sans MS, Normal';text-align:start;letter-spacing:0px;word-spacing:0px;writing-mode:lr-tb;text-anchor:start;clip-rule:nonzero;visibility:visible;isolation:auto;mix-blend-mode:normal;color-interpolation:sRGB;color-interpolation-filters:linearRGB;solid-color:#000000;solid-opacity:1;fill:#ffffff;fill-opacity:1;fill-rule:nonzero;stroke:#1e2fff;stroke-width:5;stroke-linecap:butt;stroke-linejoin:miter;stroke-miterlimit:4;stroke-dasharray:none;stroke-dashoffset:0;stroke-opacity:1;color-rendering:auto;image-rendering:auto;shape-rendering:auto;text-rendering:auto"
         d="m 778.23422,442.66072 q -8.99754,-0.45036 -14.73809,-6.19377 -6.03464,-6.02209 -5.56669,-15.37075 0.44597,-8.90974 6.84571,-18.09347 7.11079,-10.20415 15.36219,-9.79113 4.30129,0.21531 9.511,2.50011 6.58553,2.92564 6.39879,6.65633 -0.0835,1.66784 -1.24663,2.92962 -1.16096,1.2179 -2.78488,1.13663 -1.27282,-0.0637 -2.20108,-0.85819 -0.88219,-0.83618 -1.72262,-1.62624 -2.48628,-2.19247 -8.36761,-2.48687 -4.47679,-0.22408 -9.26568,7.54428 -4.36087,7.12976 -4.6289,12.48438 -0.29,5.79353 3.49315,9.32692 3.53079,3.30075 9.32436,3.59076 2.63341,0.13181 5.68822,-1.1233 l 5.22752,-2.46633 q 1.35186,-0.63635 1.92241,-0.60779 1.62393,0.0813 2.74309,1.45731 1.12136,1.33214 1.03788,2.99999 -0.16038,3.20399 -7.06888,5.8502 -6.05703,2.33684 -9.96326,2.14131 z" />
      <path
         inkscape:connector-curvature="0"
         id="path4282"
         style="color:#000000;font-style:normal;font-variant:normal;font-weight:normal;font-stretch:normal;font-size:90px;line-height:100%;font-family:'Comic Sans MS';-inkscape-font-specification:'Comic Sans MS, Normal';text-align:start;letter-spacing:0px;word-spacing:0px;writing-mode:lr-tb;text-anchor:start;clip-rule:nonzero;visibility:visible;isolation:auto;mix-blend-mode:normal;color-interpolation:sRGB;color-interpolation-filters:linearRGB;solid-color:#000000;solid-opacity:1;fill:#ffffff;fill-opacity:1;fill-rule:nonzero;stroke:#1e2fff;stroke-width:5;stroke-linecap:butt;stroke-linejoin:miter;stroke-miterlimit:4;stroke-dasharray:none;stroke-dashoffset:0;stroke-opacity:1;color-rendering:auto;image-rendering:auto;shape-rendering:auto;text-rendering:auto"
         d="m 832.73895,409.72118 q -0.9164,-0.10955 -2.17137,-0.34832 -1.21136,-0.23336 -2.1276,-0.34297 -1.00362,-0.12004 -6.01255,-0.0553 l -2.25567,25.88701 -0.18618,1.9251 -0.22274,2.23055 q -0.96852,9.57677 -5.72472,9.00785 -1.74527,-0.20877 -2.91861,-1.49984 -1.12969,-1.28586 -0.92613,-2.98759 0.19834,-1.65811 0.72592,-4.95865 0.52758,-3.30056 0.72593,-4.95865 l 2.17542,-25.5868 q -3.16956,-0.51191 -9.59801,-1.90051 -3.82082,-0.98813 -3.36672,-4.7843 0.22966,-1.91992 1.5591,-3.04439 1.32953,-1.12447 3.16216,-0.90526 l 9.07444,1.83788 q 0.26618,-2.22535 0.49176,-5.96035 0.27429,-3.77342 0.47263,-5.43153 0.21925,-1.83263 1.62555,-2.85938 1.41156,-1.07039 3.24421,-0.85118 3.92701,0.46976 3.81434,6.96229 -0.0624,1.63011 -0.3337,3.8991 l -0.38995,2.52034 -0.3671,2.70013 q 5.49421,-0.051 6.27954,0.0431 4.53801,0.54283 5.88213,1.14621 2.55736,1.19106 2.17105,4.42001 -0.22963,1.9199 -1.60277,3.03914 -1.32427,1.08083 -3.20052,0.8564 z" />
      <path
         inkscape:connector-curvature="0"
         id="path4284"
         style="color:#000000;font-style:normal;font-variant:normal;font-weight:normal;font-stretch:normal;font-size:90px;line-height:100%;font-family:'Comic Sans MS';-inkscape-font-specification:'Comic Sans MS, Normal';text-align:start;letter-spacing:0px;word-spacing:0px;writing-mode:lr-tb;text-anchor:start;clip-rule:nonzero;visibility:visible;isolation:auto;mix-blend-mode:normal;color-interpolation:sRGB;color-interpolation-filters:linearRGB;solid-color:#000000;solid-opacity:1;fill:#ffffff;fill-opacity:1;fill-rule:nonzero;stroke:#1e2fff;stroke-width:5;stroke-linecap:butt;stroke-linejoin:miter;stroke-miterlimit:4;stroke-dasharray:none;stroke-dashoffset:0;stroke-opacity:1;color-rendering:auto;image-rendering:auto;shape-rendering:auto;text-rendering:auto"
         d="m 870.65133,398.70336 q -2.09566,-0.23916 -3.45454,-1.89804 -1.35872,-1.65889 -1.11961,-3.75466 0.23919,-2.09577 1.93672,-3.4059 1.6976,-1.31014 3.79327,-1.071 2.09583,0.23916 3.41094,1.89307 1.35872,1.6589 1.11969,3.75467 -0.23928,2.09577 -1.9368,3.40589 -1.65392,1.31512 -3.74967,1.07597 z m -2.08083,35.67769 q -0.29893,2.61973 -0.76589,7.87413 -0.41824,5.21568 -0.71717,7.8354 -0.21925,1.92113 -1.5376,3.00914 -1.31835,1.08802 -3.23951,0.8688 -1.87739,-0.21423 -2.96052,-1.57627 -1.03936,-1.35708 -0.82011,-3.27819 0.29893,-2.61971 0.71725,-7.83542 0.46688,-5.25439 0.76581,-7.87412 0.46825,-4.10421 1.60245,-10.16706 1.13914,-6.10652 1.60739,-10.21073 0.2242,-1.9648 1.54263,-3.05282 1.36204,-1.08302 3.23951,-0.86878 1.87747,0.21422 2.91683,1.57129 1.08305,1.36205 0.85893,3.32683 -0.46841,4.10423 -1.60755,10.21074 -1.13412,6.06284 -1.60245,10.16706 z" />
      <path
         inkscape:connector-curvature="0"
         id="path4286"
         style="color:#000000;font-style:normal;font-variant:normal;font-weight:normal;font-stretch:normal;font-size:90px;line-height:100%;font-family:'Comic Sans MS';-inkscape-font-specification:'Comic Sans MS, Normal';text-align:start;letter-spacing:0px;word-spacing:0px;writing-mode:lr-tb;text-anchor:start;clip-rule:nonzero;visibility:visible;isolation:auto;mix-blend-mode:normal;color-interpolation:sRGB;color-interpolation-filters:linearRGB;solid-color:#000000;solid-opacity:1;fill:#ffffff;fill-opacity:1;fill-rule:nonzero;stroke:#1e2fff;stroke-width:5;stroke-linecap:butt;stroke-linejoin:miter;stroke-miterlimit:4;stroke-dasharray:none;stroke-dashoffset:0;stroke-opacity:1;color-rendering:auto;image-rendering:auto;shape-rendering:auto;text-rendering:auto"
         d="m 907.86722,418.12183 q -0.91252,-0.13792 -2.15946,-0.41534 -1.2035,-0.27074 -2.11601,-0.40865 -0.9994,-0.15104 -6.00809,-0.24137 l -3.05543,25.80482 -0.24576,1.91842 -0.29164,2.22261 q -1.26445,9.5422 -6.00063,8.82637 -1.73813,-0.26269 -2.87095,-1.58945 -1.08929,-1.3202 -0.83332,-3.01482 0.24965,-1.65117 0.8792,-4.93379 0.62947,-3.28266 0.87895,-4.93384 l 2.96644,-25.50717 q -3.15213,-0.60975 -9.5347,-2.19661 -3.78832,-1.10588 -3.21705,-4.8862 0.28904,-1.91188 1.65262,-2.99467 1.36358,-1.0828 3.18877,-0.80696 l 9.0131,2.11779 q 0.33492,-2.21606 0.67592,-5.9423 0.39101,-3.76311 0.64057,-5.41428 0.27583,-1.82497 1.71309,-2.80771 1.44407,-1.02621 3.26909,-0.75039 3.91064,0.59105 3.59713,7.07696 -0.11275,1.62742 -0.45423,3.88693 l -0.46785,2.50706 -0.45034,2.68747 q 5.49307,0.11906 6.27508,0.23731 4.51904,0.68299 5.84379,1.32768 2.51934,1.26962 2.03334,4.48507 -0.28904,1.91188 -1.69615,2.98809 -1.35701,1.03934 -3.2254,0.75696 z" />
      <path
         inkscape:connector-curvature="0"
         id="path4288"
         style="color:#000000;font-style:normal;font-variant:normal;font-weight:normal;font-stretch:normal;font-size:90px;line-height:100%;font-family:'Comic Sans MS';-inkscape-font-specification:'Comic Sans MS, Normal';text-align:start;letter-spacing:0px;word-spacing:0px;writing-mode:lr-tb;text-anchor:start;clip-rule:nonzero;visibility:visible;isolation:auto;mix-blend-mode:normal;color-interpolation:sRGB;color-interpolation-filters:linearRGB;solid-color:#000000;solid-opacity:1;fill:#ffffff;fill-opacity:1;fill-rule:nonzero;stroke:#1e2fff;stroke-width:5;stroke-linecap:butt;stroke-linejoin:miter;stroke-miterlimit:4;stroke-dasharray:none;stroke-dashoffset:0;stroke-opacity:1;color-rendering:auto;image-rendering:auto;shape-rendering:auto;text-rendering:auto"
         d="m 960.77413,460.5939 q -0.83203,-0.0707 -2.85782,-2.18327 -1.8179,-1.96264 -2.66224,-3.44567 -4.39697,1.91992 -7.69022,2.78691 -3.29689,0.9108 -5.44241,0.72856 -10.24643,-0.87025 -14.44076,-7.04818 -3.96138,-5.80527 -3.00931,-17.01492 0.89995,-10.59662 8.80844,-17.51073 7.95227,-6.91041 18.06707,-6.05132 3.80964,0.32356 8.37139,2.69567 5.74669,2.95789 5.45295,6.41711 -0.10043,1.18227 -1.05428,2.02743 -0.57913,1.62676 -1.16532,5.41396 -0.54258,3.79093 -1.09221,9.74231 -0.50481,5.42598 0.0154,8.64562 0.27421,1.96385 2.10402,7.94094 0.23959,0.81421 0.80997,2.40626 l 0.19964,0.76673 q -0.14873,1.75149 -1.47163,2.78584 -1.32281,1.03436 -2.94284,0.89675 z m -6.52311,-31.20598 q 0.15992,-1.88288 0.56471,-4.05369 0.45252,-2.21084 1.14611,-4.66582 -1.54952,-0.96957 -2.69831,-1.46406 -1.10502,-0.49081 -1.80557,-0.5503 -6.78702,-0.57645 -12.20739,4.56435 -5.37278,5.1007 -5.98644,12.32567 -0.60994,7.18117 1.62473,10.98745 2.2346,3.80631 7.31413,4.23772 4.20373,0.35702 7.26751,-0.92637 1.64703,-0.6981 4.7053,-2.95224 -0.41573,-11.72274 0.0754,-17.50271 z" />
      <path
         inkscape:connector-curvature="0"
         id="path4290"
         style="color:#000000;font-style:normal;font-variant:normal;font-weight:normal;font-stretch:normal;font-size:90px;line-height:100%;font-family:'Comic Sans MS';-inkscape-font-specification:'Comic Sans MS, Normal';text-align:start;letter-spacing:0px;word-spacing:0px;writing-mode:lr-tb;text-anchor:start;clip-rule:nonzero;visibility:visible;isolation:auto;mix-blend-mode:normal;color-interpolation:sRGB;color-interpolation-filters:linearRGB;solid-color:#000000;solid-opacity:1;fill:#ffffff;fill-opacity:1;fill-rule:nonzero;stroke:#1e2fff;stroke-width:5;stroke-linecap:butt;stroke-linejoin:miter;stroke-miterlimit:4;stroke-dasharray:none;stroke-dashoffset:0;stroke-opacity:1;color-rendering:auto;image-rendering:auto;shape-rendering:auto;text-rendering:auto"
         d="m 984.43469,430.47477 -2.12955,21.74675 q -0.23392,3.46378 -1.03774,10.14846 -0.73452,4.35493 -4.59304,4.09433 -4.29686,-0.29021 -3.99477,-4.76244 0.35826,-5.30532 1.55722,-15.88333 1.20195,-10.62185 1.5603,-15.92716 0.46784,-6.92758 1.28836,-15.81338 0.82327,-8.92966 1.29112,-15.85724 0.29617,-4.38453 4.59295,-4.09433 4.34072,0.29317 4.04455,4.67771 -0.46785,6.92757 -1.29112,15.85724 -0.82044,8.88581 -1.28828,15.81339 z" />
      <path
         inkscape:connector-curvature="0"
         id="path4292"
         style="color:#000000;font-style:normal;font-variant:normal;font-weight:normal;font-stretch:normal;font-size:90px;line-height:100%;font-family:'Comic Sans MS';-inkscape-font-specification:'Comic Sans MS, Normal';text-align:start;letter-spacing:0px;word-spacing:0px;writing-mode:lr-tb;text-anchor:start;clip-rule:nonzero;visibility:visible;isolation:auto;mix-blend-mode:normal;color-interpolation:sRGB;color-interpolation-filters:linearRGB;solid-color:#000000;solid-opacity:1;fill:#ffffff;fill-opacity:1;fill-rule:nonzero;stroke:#1e2fff;stroke-width:5;stroke-linecap:butt;stroke-linejoin:miter;stroke-miterlimit:4;stroke-dasharray:none;stroke-dashoffset:0;stroke-opacity:1;color-rendering:auto;image-rendering:auto;shape-rendering:auto;text-rendering:auto"
         d="m 1001.9751,432.18814 -1.871,21.77051 q -0.19285,3.46632 -0.91708,10.16008 -0.68288,4.36334 -4.54416,4.14858 -4.30002,-0.23915 -4.05102,-4.71465 0.29528,-5.30919 1.36852,-15.9007 1.0756,-10.63538 1.37088,-15.94457 0.38557,-6.93265 1.10039,-15.82758 0.71726,-8.93879 1.10283,-15.87145 0.24406,-4.38774 4.54394,-4.14859 4.3439,0.2416 4.0999,4.62935 -0.3856,6.93264 -1.1028,15.87145 -0.7148,8.89492 -1.1004,15.82757 z" />
      <path
         inkscape:connector-curvature="0"
         id="path4294"
         style="color:#000000;font-style:normal;font-variant:normal;font-weight:normal;font-stretch:normal;font-size:90px;line-height:100%;font-family:'Comic Sans MS';-inkscape-font-specification:'Comic Sans MS, Normal';text-align:start;letter-spacing:0px;word-spacing:0px;writing-mode:lr-tb;text-anchor:start;clip-rule:nonzero;visibility:visible;isolation:auto;mix-blend-mode:normal;color-interpolation:sRGB;color-interpolation-filters:linearRGB;solid-color:#000000;solid-opacity:1;fill:#ffffff;fill-opacity:1;fill-rule:nonzero;stroke:#1e2fff;stroke-width:5;stroke-linecap:butt;stroke-linejoin:miter;stroke-miterlimit:4;stroke-dasharray:none;stroke-dashoffset:0;stroke-opacity:1;color-rendering:auto;image-rendering:auto;shape-rendering:auto;text-rendering:auto"
         d="m 1025.6642,405.07087 -2.3651,48.85394 q -0.1891,3.90655 -4.0956,3.71743 -3.9066,-0.18913 -3.7175,-4.09568 0.087,-1.79965 0.1275,-5.36144 0.086,-3.60355 0.1715,-5.35932 0.3081,-6.3646 1.0101,-19.04569 0.7479,-12.72287 1.056,-19.08749 0.1891,-3.90655 4.0957,-3.71742 3.9065,0.18912 3.7174,4.09567 z m -3.1288,65.53574 q -0.076,1.58018 -1.4047,2.6598 -1.2864,1.12563 -2.8666,1.04913 -1.7557,-0.085 -3.401,-2.4525 -1.6078,-2.23366 -1.5206,-4.03332 0.076,-1.58018 1.3608,-2.66191 1.3282,-1.07963 2.9522,-1.001 1.7119,0.0829 3.401,2.45248 1.5639,2.23156 1.4789,3.98732 z" />
    </g>
    <flowRoot
       xml:space="preserve"
       id="flowRoot3340"
       style="font-style:normal;font-weight:normal;font-size:40px;line-height:125%;font-family:sans-serif;letter-spacing:0px;word-spacing:0px;fill:#000000;fill-opacity:1;stroke:none;stroke-width:1px;stroke-linecap:butt;stroke-linejoin:miter;stroke-opacity:1"><flowRegion
         id="flowRegion3342"><rect
           id="rect3344"
           width="34.285713"
           height="354.28571"
           x="1085.7142"
           y="697.59283" /></flowRegion><flowPara
         id="flowPara3346"></flowPara></flowRoot>  </g>
</svg>
